<?xml version="1.0" standalone="no"?>
<!DOCTYPE svg PUBLIC "-//W3C//DTD SVG 20010904//EN"
 "http://www.w3.org/TR/2001/REC-SVG-20010904/DTD/svg10.dtd">
<svg version="1.0" xmlns="http://www.w3.org/2000/svg"
 width="1024.000000pt" height="218.000000pt" viewBox="0 0 1024.000000 218.000000"
 preserveAspectRatio="xMidYMid meet">

<g transform="translate(0.000000,218.000000) scale(0.100000,-0.100000)"
fill="#000000" stroke="none">
<path d="M3370 1510 l0 -220 45 0 45 0 0 95 0 95 100 0 100 0 0 35 0 34 -97 3
-98 3 0 50 0 50 108 3 107 3 0 34 0 35 -155 0 -155 0 0 -220z"/>
<path d="M4840 1510 l0 -220 40 0 40 0 0 220 0 220 -40 0 -40 0 0 -220z"/>
<path d="M5000 1510 l0 -220 45 0 45 0 0 220 0 220 -45 0 -45 0 0 -220z"/>
<path d="M3801 1603 c-55 -29 -75 -64 -79 -141 -4 -76 14 -122 61 -156 40 -30
144 -30 184 0 46 35 66 79 66 145 -1 101 -52 159 -145 166 -38 3 -63 -1 -87
-14z m128 -79 c45 -57 15 -174 -44 -174 -37 0 -55 10 -70 41 -19 36 -19 82 0
119 25 48 82 55 114 14z"/>
<path d="M4215 1589 l-35 -31 0 26 c0 24 -4 26 -40 26 l-40 0 0 -160 0 -160
39 0 39 0 4 105 c4 117 14 137 67 139 30 1 31 3 31 44 0 52 -15 54 -65 11z"/>
<path d="M4554 1606 c-35 -16 -64 -51 -64 -78 0 -27 71 -25 88 3 10 15 21 19
50 17 32 -3 37 -6 37 -28 0 -22 -6 -26 -60 -37 -76 -17 -100 -29 -114 -60 -20
-43 -13 -82 19 -115 28 -27 36 -30 76 -25 25 2 53 12 63 21 22 20 31 20 31 1
0 -11 12 -15 50 -15 47 0 63 11 40 25 -6 4 -10 55 -10 120 0 111 -1 116 -28
146 -23 26 -36 31 -87 35 -39 3 -71 0 -91 -10z m122 -182 c-3 -9 -6 -22 -6
-29 0 -42 -80 -62 -100 -26 -14 28 -3 50 34 60 52 15 79 13 72 -5z"/>
<path d="M5753 1605 c-32 -14 -63 -59 -63 -93 0 -39 37 -68 115 -91 105 -32
115 -70 18 -71 -32 0 -45 5 -53 20 -8 15 -21 20 -51 20 -40 0 -41 -1 -34 -27
9 -39 32 -61 74 -73 115 -32 211 14 211 101 0 48 -22 66 -112 93 -58 18 -73
27 -73 42 0 12 8 20 24 22 35 5 71 -7 71 -23 0 -11 11 -15 40 -15 35 0 40 3
40 23 0 66 -123 109 -207 72z"/>
<path d="M6090 1602 c-67 -33 -101 -153 -66 -236 39 -93 169 -115 243 -41 18
18 33 40 33 49 0 24 -59 21 -87 -6 -26 -24 -77 -28 -98 -7 -7 8 -17 26 -20 42
l-7 27 111 0 111 0 0 33 c0 18 -10 53 -22 77 -39 74 -122 100 -198 62z m113
-70 c34 -29 21 -42 -43 -42 -63 0 -73 9 -47 42 23 30 55 30 90 0z"/>
<path d="M6481 1589 l-31 -31 0 26 c0 24 -4 26 -40 26 l-40 0 0 -160 0 -160
40 0 40 0 0 99 c0 114 13 143 68 145 31 1 32 3 32 44 0 35 -3 42 -19 42 -11 0
-33 -14 -50 -31z"/>
<path d="M6653 1605 c-32 -14 -63 -59 -63 -93 0 -39 37 -68 115 -91 105 -32
115 -70 18 -71 -32 0 -45 5 -53 20 -8 15 -21 20 -51 20 -40 0 -41 -1 -34 -27
9 -39 32 -61 74 -73 115 -32 211 14 211 101 0 48 -22 66 -112 93 -58 18 -73
27 -73 42 0 12 8 20 24 22 35 5 71 -7 71 -23 0 -11 11 -15 40 -15 35 0 40 3
40 23 0 66 -123 109 -207 72z"/>
<path d="M5330 1485 c0 -142 10 -174 60 -195 36 -15 95 -8 120 15 21 19 30 19
30 0 0 -11 11 -15 40 -15 l40 0 0 160 0 160 -39 0 -39 0 -4 -111 c-3 -102 -5
-112 -27 -130 -28 -23 -50 -24 -77 -5 -16 13 -19 29 -22 130 l-4 116 -39 0
-39 0 0 -125z"/>
<path d="M3840 530 c0 -91 3 -110 15 -110 11 0 15 12 15 50 l0 50 48 0 c56 0
72 12 72 56 0 49 -22 64 -91 64 l-59 0 0 -110z m117 64 c21 -29 -1 -54 -47
-54 l-40 0 0 41 0 42 37 -6 c21 -4 43 -14 50 -23z"/>
<path d="M4030 530 c0 -91 3 -110 15 -110 12 0 15 19 15 110 0 91 -3 110 -15
110 -12 0 -15 -19 -15 -110z"/>
<path d="M4330 530 c0 -67 4 -110 10 -110 6 0 10 43 10 110 0 67 -4 110 -10
110 -6 0 -10 -43 -10 -110z"/>
<path d="M4730 625 c0 -8 5 -15 10 -15 6 0 10 7 10 15 0 8 -4 15 -10 15 -5 0
-10 -7 -10 -15z"/>
<path d="M5040 625 c0 -8 7 -15 15 -15 8 0 15 7 15 15 0 8 -7 15 -15 15 -8 0
-15 -7 -15 -15z"/>
<path d="M5680 625 c0 -8 5 -15 10 -15 6 0 10 7 10 15 0 8 -4 15 -10 15 -5 0
-10 -7 -10 -15z"/>
<path d="M5750 530 c0 -67 4 -110 10 -110 6 0 10 43 10 110 0 67 -4 110 -10
110 -6 0 -10 -43 -10 -110z"/>
<path d="M4090 570 c0 -5 18 -10 40 -10 22 0 40 -3 40 -6 0 -4 -20 -32 -45
-62 -25 -30 -45 -58 -45 -63 0 -5 29 -9 65 -9 74 0 89 17 19 22 l-47 3 47 57
c25 31 46 61 46 67 0 7 -24 11 -60 11 -33 0 -60 -4 -60 -10z"/>
<path d="M4410 560 c-13 -13 -20 -33 -20 -60 0 -75 66 -105 117 -54 21 21 24
32 19 62 -10 65 -74 94 -116 52z m74 -16 c29 -29 11 -104 -25 -104 -16 0 -49
40 -49 60 0 20 33 60 49 60 5 0 17 -7 25 -16z"/>
<path d="M4575 560 c-24 -27 -25 -93 -1 -119 21 -23 56 -27 74 -9 9 9 12 8 12
-8 0 -40 -45 -59 -70 -29 -14 17 -30 20 -30 6 0 -19 32 -41 59 -41 48 0 64 30
69 129 l4 88 -50 1 c-37 1 -54 -4 -67 -18z m69 -16 c29 -28 11 -104 -24 -104
-18 0 -40 33 -40 60 0 27 22 60 40 60 5 0 16 -7 24 -16z"/>
<path d="M4730 500 c0 -47 4 -80 10 -80 6 0 10 33 10 80 0 47 -4 80 -10 80 -6
0 -10 -33 -10 -80z"/>
<path d="M4800 500 c0 -47 4 -80 10 -80 6 0 10 24 10 54 0 36 5 60 16 70 37
38 64 7 64 -73 0 -28 5 -51 10 -51 14 0 13 133 -2 148 -7 7 -24 12 -38 12 -14
0 -31 -5 -38 -12 -9 -9 -12 -9 -12 0 0 7 -4 12 -10 12 -6 0 -10 -33 -10 -80z"/>
<path d="M5050 500 c0 -47 4 -80 10 -80 6 0 10 33 10 80 0 47 -4 80 -10 80 -6
0 -10 -33 -10 -80z"/>
<path d="M5110 500 c0 -64 3 -80 15 -80 11 0 15 13 15 54 0 58 18 90 49 84 12
-3 17 -18 19 -71 2 -51 6 -67 17 -67 22 0 21 123 -1 144 -18 19 -55 21 -72 4
-9 -9 -12 -9 -12 0 0 7 -7 12 -15 12 -12 0 -15 -16 -15 -80z"/>
<path d="M5387 568 c-57 -44 -31 -148 38 -148 23 0 65 26 65 41 0 14 -20 11
-37 -6 -22 -22 -72 -3 -73 28 0 4 27 7 60 7 l60 0 -6 28 c-12 52 -68 79 -107
50z m67 -24 c26 -25 19 -34 -29 -34 -50 0 -57 11 -23 34 28 20 33 20 52 0z"/>
<path d="M5538 500 c32 -97 46 -100 79 -15 35 90 36 95 20 95 -8 0 -21 -24
-32 -60 -10 -33 -22 -57 -25 -53 -4 4 -15 32 -25 61 -9 28 -23 52 -30 52 -10
0 -7 -20 13 -80z"/>
<path d="M5680 500 c0 -47 4 -80 10 -80 6 0 10 33 10 80 0 47 -4 80 -10 80 -6
0 -10 -33 -10 -80z"/>
<path d="M5917 568 c-43 -33 -40 -112 4 -137 33 -18 77 -7 88 22 11 29 -6 35
-25 8 -19 -26 -36 -27 -57 -3 -25 28 -21 69 8 88 24 15 27 15 44 0 22 -20 31
-20 31 -1 0 30 -62 46 -93 23z"/>
<path d="M6060 560 c-13 -13 -20 -33 -20 -60 0 -75 66 -105 117 -54 21 21 24
32 19 62 -10 65 -74 94 -116 52z m74 -16 c29 -29 11 -104 -25 -104 -16 0 -49
40 -49 60 0 20 33 60 49 60 5 0 17 -7 25 -16z"/>
<path d="M6210 498 c0 -63 3 -78 15 -78 12 0 15 13 15 59 0 61 16 89 45 77 11
-4 15 -22 15 -71 0 -51 3 -65 15 -65 12 0 15 13 15 59 0 61 16 89 45 77 11 -4
15 -22 15 -71 0 -51 3 -65 15 -65 12 0 15 13 15 61 0 33 -5 69 -10 80 -12 21
-41 25 -70 9 -13 -7 -21 -7 -25 0 -3 5 -28 9 -56 8 l-49 -2 0 -78z"/>
<path d="M5820 435 c0 -8 7 -15 15 -15 8 0 15 7 15 15 0 8 -7 15 -15 15 -8 0
-15 -7 -15 -15z"/>
</g>
</svg>
