<?xml version="1.0" standalone="no"?>
<!DOCTYPE svg PUBLIC "-//W3C//DTD SVG 20010904//EN"
 "http://www.w3.org/TR/2001/REC-SVG-20010904/DTD/svg10.dtd">
<svg version="1.0" xmlns="http://www.w3.org/2000/svg"
 width="1024.000000pt" height="67.000000pt" viewBox="0 0 1024.000000 67.000000"
 preserveAspectRatio="xMidYMid meet">

<g transform="translate(0.000000,67.000000) scale(0.100000,-0.100000)"
fill="#000000" stroke="none">
<path d="M100 445 l0 -115 25 0 c23 0 24 4 27 63 3 59 4 62 28 62 24 0 25 -3
28 -62 3 -55 6 -63 22 -63 18 0 20 7 20 69 0 50 -4 74 -16 85 -18 19 -55 21
-72 4 -9 -9 -12 -3 -12 30 0 38 -2 42 -25 42 l-25 0 0 -115z"/>
<path d="M470 445 l0 -115 25 0 25 0 0 115 0 115 -25 0 -25 0 0 -115z"/>
<path d="M560 445 l0 -115 25 0 25 0 0 115 0 115 -25 0 -25 0 0 -115z"/>
<path d="M322 493 c-23 -9 -44 -64 -37 -99 11 -63 81 -84 132 -39 l28 24 -25
1 c-14 0 -32 -4 -39 -9 -9 -6 -22 -6 -33 0 -33 18 -19 29 37 29 52 0 55 1 55
25 0 51 -66 89 -118 68z m72 -48 c4 -12 -3 -15 -29 -15 -33 0 -43 8 -28 23 12
13 51 7 57 -8z"/>
<path d="M684 490 c-28 -11 -48 -61 -39 -99 21 -95 165 -74 165 24 0 65 -61
102 -126 75z m77 -51 c18 -34 -4 -71 -39 -67 -21 2 -28 9 -30 31 -2 16 -1 35
2 43 8 22 54 17 67 -7z"/>
</g>
</svg>
